<svg width="501" height="432" viewBox="0 0 501 432" fill="none" xmlns="http://www.w3.org/2000/svg">
<g clip-path="url(#clip0_451_1613)">
<path d="M421.061 69.9026L375.871 129.394C373.419 132.625 374.296 137.283 377.757 139.381C377.757 139.381 436.631 176.105 445.259 180.136C453.888 184.167 481.75 137.377 481.75 137.377C481.75 137.377 459.528 150.545 456.106 148.687L424.58 127.684C420.944 125.711 419.895 124.806 422.359 121.465L447.076 87.9487C449.414 84.7763 448.603 80.2785 445.302 78.1453L430.126 68.3184C427.148 66.3812 423.204 67.0753 421.061 69.9026Z" fill="#3894AB"/>
<path d="M348.055 50.2331L354.696 193.233C354.891 197.476 358.255 200.888 362.472 201.111L400.818 202.707C404.493 202.86 408.075 201.593 410.846 199.162C415.838 194.774 420.811 190.653 429.007 182.198C437.204 173.744 402.685 166.133 402.685 166.133C402.462 163.674 401.165 161.443 399.138 160.051L370.824 140.561C384.425 146.553 389.473 134.954 375.875 128.962L390.926 97.3129C391.905 95.9208 392.427 94.2542 392.427 92.5484L392.462 46.6019C392.47 41.6532 392.84 3.61604 377.317 6.81587C361.793 10.0157 347.857 45.8882 348.055 50.2331Z" fill="#3894AB"/>
<path d="M421.076 178.595C420.87 178.595 420.663 178.587 420.453 178.579L385.973 176.728C379.324 176.367 374.082 171.054 373.778 164.368L367.078 20.0387C366.766 13.2547 371.775 7.32564 378.478 6.54137L406.703 3.25528C407.202 3.20038 407.7 3.17293 408.199 3.17293C411.641 3.17293 414.879 4.52579 417.319 6.98056C419.755 9.44317 421.092 12.7018 421.084 16.1644L421.053 62.5344C421.053 65.2205 420.234 67.8047 418.691 70.0085L396.305 101.948C395.728 102.767 395.509 103.767 395.689 104.76C395.868 105.748 396.421 106.61 397.248 107.179L400.257 109.253L425.827 126.841C429.003 129.029 431.03 132.503 431.389 136.373L432.301 146.506L433.918 164.443C434.249 168.058 433.041 171.677 430.609 174.367C428.154 177.054 424.681 178.595 421.076 178.595Z" fill="url(#paint0_linear_451_1613)"/>
<path d="M408.199 5.52182C411.013 5.52182 413.663 6.62764 415.666 8.64322C417.654 10.6509 418.753 13.3175 418.745 16.1565L418.714 62.5344C418.714 64.7382 418.044 66.8518 416.781 68.6556L394.395 100.595C393.455 101.936 393.101 103.564 393.385 105.179C393.678 106.791 394.574 108.195 395.922 109.124L398.935 111.198L424.506 128.786C427.109 130.582 428.766 133.429 429.062 136.593L429.974 146.718L431.591 164.654C431.864 167.623 430.87 170.583 428.882 172.779C426.879 174.975 424.042 176.242 421.084 176.242C420.897 176.242 420.706 176.234 420.511 176.226L386.101 174.379C380.664 174.085 376.369 169.736 376.12 164.262L369.416 19.9289C369.159 14.3762 373.255 9.5216 378.751 8.8785L406.971 5.5924C407.377 5.54535 407.79 5.52182 408.199 5.52182ZM408.199 0.816193C407.618 0.816193 407.03 0.847563 406.457 0.914226H406.445H406.434L378.213 4.20032C370.289 5.12968 364.373 12.1332 364.744 20.1446L371.443 164.478C371.802 172.372 377.991 178.65 385.844 179.077L420.258 180.924H420.293H420.328C420.562 180.932 420.807 180.944 421.08 180.944C425.336 180.944 429.436 179.128 432.324 175.956C435.212 172.768 436.634 168.493 436.245 164.219L434.627 146.287L433.715 136.162C433.29 131.582 430.897 127.48 427.144 124.896L401.57 107.305L398.561 105.23C398.253 105.018 398.054 104.712 397.984 104.332C397.918 103.956 397.996 103.607 398.21 103.301L420.601 71.3574C422.424 68.7576 423.391 65.7028 423.391 62.5265L423.422 16.1526C423.434 12.0705 421.855 8.21971 418.979 5.31399C416.087 2.41218 412.264 0.816193 408.199 0.816193Z" fill="black"/>
<path d="M383.264 27.7285C383.042 25.6423 381.818 23.8855 381.335 21.8229C380.953 20.1877 381.124 18.2584 379.967 16.9526C379.717 16.6702 379.226 16.533 378.868 16.6585C376.623 17.4506 376.144 20.4034 376.101 22.5366C376.046 25.3207 376.857 28.4421 379.094 30.1362C380.707 31.3557 383.475 29.7244 383.264 27.7285Z" fill="white"/>
<path d="M465.877 152.953C464.224 152.953 462.603 152.498 461.18 151.631L398.951 113.849C396.741 112.508 395.198 110.277 394.715 107.724C394.231 105.171 394.855 102.52 396.422 100.454L442.032 40.4023C443.763 38.12 446.398 36.8064 449.258 36.8064C451.008 36.8064 452.711 37.3122 454.188 38.2691L469.505 48.1862C471.613 49.5469 473.079 51.7546 473.531 54.2368C473.983 56.719 473.383 59.3071 471.886 61.3384L446.939 95.1679C446.144 96.2463 445.852 97.6187 446.14 98.9285C446.429 100.238 447.267 101.356 448.44 101.991L480.262 119.3C482.479 120.508 484.065 122.523 484.72 124.978C485.367 127.401 484.989 130.013 483.684 132.146L473.632 148.585C471.964 151.322 469.065 152.953 465.877 152.953Z" fill="#F96C26"/>
<path d="M449.262 36.8103C450.536 36.8103 451.826 37.1672 452.972 37.9122L468.293 47.8332C471.621 49.9861 472.443 54.527 470.082 57.7307L445.135 91.5603C442.648 94.9287 443.708 99.7324 447.376 101.724L479.198 119.033C482.654 120.912 483.832 125.335 481.774 128.703L471.722 145.138C470.428 147.255 468.18 148.424 465.88 148.424C464.676 148.424 463.456 148.102 462.349 147.432L400.116 109.646C396.624 107.528 395.74 102.826 398.214 99.5638L443.821 39.516C445.162 37.7514 447.192 36.8103 449.262 36.8103ZM449.262 32.2811C445.696 32.2811 442.41 33.9163 440.247 36.7672L394.637 96.8149C392.68 99.3951 391.905 102.701 392.509 105.885C393.109 109.069 395.038 111.853 397.793 113.524L460.026 151.306C461.796 152.38 463.819 152.949 465.88 152.949C469.852 152.949 473.468 150.918 475.553 147.51L485.605 131.072C487.234 128.409 487.702 125.151 486.899 122.131C486.096 119.112 484.065 116.531 481.337 115.049L449.515 97.7403C448.693 97.2933 448.428 96.5678 448.338 96.1757C448.253 95.7836 448.19 95.0111 448.744 94.2542L473.691 60.4247C475.557 57.8954 476.306 54.6682 475.741 51.5703C475.179 48.4763 473.348 45.7236 470.717 44.0217L455.4 34.1046C453.569 32.9125 451.444 32.2811 449.262 32.2811Z" fill="black"/>
<path d="M442.718 47.4725C440.458 51.2605 437.815 55.174 436.33 59.3502C435.878 60.6247 437.527 61.2443 438.377 60.5463C441.662 57.8405 444.355 54.1152 447.04 50.8252C449.597 47.7078 444.753 44.0648 442.718 47.4725Z" fill="white"/>
<path d="M429.284 68.3772C427.772 68.3772 427.768 70.7457 429.284 70.7457C430.796 70.7418 430.8 68.3772 429.284 68.3772Z" fill="white"/>
<path d="M337.657 48.2489C337.419 48.2097 310.403 44.0138 288.196 54.6172C286.329 55.8093 284.524 57.1072 282.806 58.5895C281.57 59.6561 280.378 60.7698 279.228 61.9383C279.22 61.9462 279.22 61.9462 279.216 61.958C276.087 64.7264 273.479 67.8518 271.285 71.1339C267.754 76.4317 265.334 82.1608 263.666 87.5487C263.666 87.5565 263.666 87.5565 263.666 87.5565C259.967 99.5245 260.014 109.787 260.014 109.787C259.901 111.732 259.889 113.653 259.991 115.555C260.201 117.641 260.454 119.653 260.758 121.594C263.374 138.707 269.282 150.569 276.796 158.69C283.889 166.38 292.417 170.725 300.917 173.019C307.086 174.685 313.248 175.281 318.852 175.301C324.387 175.312 332.314 174.191 336.749 173.485C338.908 173.14 340.935 172.254 342.665 170.905L363.247 154.827L337.092 139.64C336.815 137.801 335.124 136.511 333.292 136.766C325.178 137.891 304.635 137.962 302.484 110.351V110.316C301.747 100.654 304.191 94.3719 308.041 90.3289C309.148 89.1682 310.368 88.184 311.666 87.3605C316.845 84.0783 329.496 83.5607 335.023 83.494C336.772 83.4744 338.456 82.8431 339.801 81.7177C347.556 75.22 373.158 53.6839 359.12 64.2323C359.35 58.6797 336.535 61.8521 337.049 56.3269C337.108 55.6446 337.178 54.9701 337.248 54.2878L337.657 48.2489Z" fill="#3894AB"/>
<path d="M342.186 150.683C335.35 150.663 328.865 149.832 322.898 148.22C312.332 145.369 303.407 140.06 296.376 132.436C287.424 122.755 281.582 109.336 279.014 92.5485C278.706 90.5486 278.437 88.4193 278.211 86.2194L278.195 85.992C278.09 83.9921 278.094 81.9059 278.211 79.7923C278.219 78.3806 278.398 68.287 281.999 56.4563L282.1 56.123C284.162 49.4567 286.941 43.4766 290.367 38.3396C292.9 34.5438 295.8 31.1753 298.988 28.3284C300.211 27.0893 301.502 25.8815 302.823 24.7404C304.608 23.2032 306.56 21.7601 308.793 20.3367L309.031 20.1838L309.292 20.0622C322.672 13.6704 337.568 12.3293 347.709 12.3293C352.101 12.3293 355.745 12.5803 358.029 12.792C362.48 13.2077 365.843 17.1839 365.523 21.6582L365.336 24.3443L365.321 24.4776C365.255 25.1129 365.192 25.7325 365.138 26.3599C364.67 31.391 364.323 36.8064 364.07 42.9276L363.544 50.5194C363.255 54.7231 359.744 58.017 355.546 58.017C355.32 58.017 355.09 58.0092 354.864 57.9896C353.691 57.8915 352.506 57.8405 351.345 57.8405C347.393 57.8405 341.765 58.4209 337.392 61.1933C336.363 61.8482 335.424 62.6167 334.602 63.4794C331.157 67.0989 329.695 72.6907 330.26 80.0981L330.268 80.2354C331.468 95.2581 338.671 102.877 351.664 102.877C353.145 102.877 354.654 102.771 356.146 102.568C356.509 102.517 356.879 102.493 357.242 102.493C361.162 102.493 364.565 105.446 365.157 109.359L369.53 138.393C370.22 143.001 367.223 147.4 362.71 148.404C358.04 149.439 350.725 150.675 342.381 150.675H342.186V150.683Z" fill="url(#paint1_linear_451_1613)"/>
<path d="M347.701 14.686C352.007 14.686 355.574 14.9331 357.807 15.137C360.999 15.435 363.411 18.2858 363.181 21.4935L362.998 24.1404L362.986 24.2345C362.92 24.8776 362.854 25.5168 362.799 26.1599C362.332 31.2185 361.981 36.6691 361.724 42.8335L361.201 50.3586C360.999 53.3349 358.512 55.6681 355.538 55.6681C355.379 55.6681 355.219 55.6603 355.055 55.6485C353.82 55.5465 352.569 55.4916 351.333 55.4916C347.073 55.4916 340.982 56.1347 336.134 59.2091C334.945 59.9659 333.857 60.8561 332.903 61.856C328.978 65.9813 327.298 72.1809 327.918 80.2864L327.926 80.4079C329.559 100.928 341.726 105.242 351.657 105.242C351.657 105.242 351.657 105.242 351.661 105.242C353.247 105.242 354.86 105.128 356.458 104.909C356.715 104.873 356.977 104.854 357.234 104.854C360.009 104.854 362.417 106.948 362.834 109.72L367.207 138.75C367.714 142.138 365.512 145.373 362.191 146.114C357.635 147.126 350.499 148.33 342.369 148.33H342.194C335.568 148.31 329.286 147.506 323.51 145.949C313.373 143.216 304.822 138.13 298.095 130.84C289.467 121.512 283.823 108.508 281.333 92.1955C281.029 90.2348 280.764 88.1448 280.546 85.9841L280.538 85.8743C280.436 83.9411 280.444 81.9177 280.557 79.8668C280.557 78.8315 280.674 68.8791 284.244 57.1504L284.345 56.8131C286.337 50.3821 289.018 44.6099 292.316 39.6572C294.755 36.0025 297.538 32.7713 300.597 30.046L300.613 30.0303C301.798 28.8264 303.061 27.6461 304.347 26.5364C306.046 25.0698 307.913 23.6973 310.049 22.3327L310.165 22.2582L310.29 22.1993C323.276 15.9918 337.802 14.686 347.701 14.686ZM347.701 9.9804C337.322 9.9804 322.056 11.3607 308.275 17.9407L308.162 17.9956L307.893 18.1211L307.644 18.2819L307.527 18.3564C305.208 19.8348 303.166 21.3406 301.295 22.9522C299.947 24.1169 298.629 25.3482 297.378 26.6148C294.065 29.5833 291.053 33.085 288.426 37.026C284.875 42.359 281.999 48.543 279.875 55.4054L279.871 55.4211L279.867 55.4367L279.766 55.774C276.122 67.742 275.892 78.0316 275.876 79.7139C275.76 81.8941 275.752 84.047 275.861 86.1135L275.865 86.1684L275.869 86.2233L275.876 86.3331L275.88 86.3958L275.888 86.4547C276.114 88.6898 276.391 90.8623 276.707 92.9092C279.345 110.163 285.386 124.002 294.67 134.036C302 141.981 311.3 147.518 322.298 150.486C328.46 152.153 335.147 153.008 342.178 153.028H342.369C350.92 153.028 358.415 151.765 363.197 150.702C368.914 149.428 372.702 143.867 371.829 138.04L367.457 109.006C366.693 103.952 362.296 100.14 357.23 100.14C356.762 100.14 356.287 100.172 355.815 100.238C354.428 100.43 353.029 100.528 351.657 100.528C339.937 100.528 333.702 93.8386 332.591 80.0825L332.587 80.0197L332.583 79.9687L332.579 79.9178C332.069 73.2044 333.312 68.2204 336.282 65.1029C336.968 64.3814 337.763 63.7343 338.636 63.1775C342.529 60.711 347.693 60.1894 351.337 60.1894C352.436 60.1894 353.555 60.2365 354.669 60.3306C354.946 60.3541 355.246 60.3659 355.542 60.3659C360.964 60.3659 365.504 56.1073 365.874 50.6723L366.397 43.1551L366.4 43.0884L366.404 43.0217C366.658 36.9358 367.001 31.5596 367.464 26.5873V26.5717V26.556C367.515 25.9756 367.574 25.3992 367.636 24.7835L367.644 24.709L367.651 24.6227L367.659 24.5404L367.663 24.458L367.846 21.8111C368.256 16.0742 363.945 10.9725 358.235 10.4392C355.901 10.2392 352.183 9.9804 347.701 9.9804Z" fill="black"/>
<path d="M337.209 24.3443C333.998 21.9288 329.04 23.4071 325.447 24.2659C321.062 25.3168 316.725 26.9834 312.769 29.1676C309.07 31.2067 305.372 33.9007 302.624 37.1358C300.96 39.0925 298.228 42.0218 300.028 44.6256C300.437 45.2177 301.092 45.5392 301.809 45.3549C301.93 45.3236 302.047 45.2922 302.168 45.2608C302.85 45.0844 303.286 44.3001 303.17 43.6217C303.294 43.5472 303.458 43.457 303.676 43.3433C304.358 42.9904 304.997 42.4688 305.629 42.0296C307.106 41.0022 308.548 39.9317 310.037 38.92C312.87 36.9985 315.879 35.281 319.004 33.8811C322.037 32.5243 325.26 31.5439 328.51 30.8812C331.811 30.2107 335.05 30.5361 337.7 28.2069C339.01 27.0618 338.374 25.2227 337.209 24.3443Z" fill="white"/>
<path d="M265.502 121.265C261.012 134.656 242.523 159.161 199.932 159.8C198.335 159.823 196.686 159.811 194.983 159.753C194.983 159.753 194.975 159.753 194.963 159.76C194.955 159.753 194.952 159.753 194.952 159.76C193.872 159.808 166.033 160.643 160.515 127.288L159.813 72.0045L159.871 46.751C159.879 44.4687 172.487 15.8428 178.4 11.9724C184.312 8.10207 182.753 43.7472 191.471 44.2687C194.27 44.4295 195.178 45.0805 195.146 47.5117V47.5352L195.275 73.0907V73.1613L195.376 92.972V93.0975C195.322 95.9679 195.263 98.8344 195.205 101.717C195.069 108.653 194.881 115.598 195.505 122.531C195.505 122.531 195.513 122.586 195.528 122.696C195.677 123.853 196.9 130.829 204.188 129.092C204.196 129.092 204.196 129.092 204.2 129.092C207.61 127.519 210.541 123.923 210.974 120.116L209.75 47.9823C209.719 46.2922 211.141 44.9393 212.813 45.053L229.677 12.2744C232.175 12.4509 246.214 49.3273 246.237 51.8448L246.977 120.967C247.161 123.715 269.991 107.873 265.502 121.265Z" fill="#3894AB"/>
<path d="M221.356 135.04C220.175 135.04 218.675 135.017 217.782 135.001L217.201 134.993C217.069 134.997 216.862 135.001 216.59 135.001C214.251 135.001 205.973 134.625 197.602 129.793C186.927 123.629 180.278 113.049 177.846 98.352L177.787 98.003L177.074 41.8532L177.133 16.2938C177.144 11.5372 180.999 7.6668 185.73 7.6668C185.882 7.6668 186.03 7.67072 186.182 7.67856L191.097 7.93345C198.572 8.32166 206.297 8.72556 213.9 9.18044C220.6 9.56473 221.972 13.6978 221.937 17.1055L222.167 63.1265C222.116 65.8009 222.065 68.4321 222.011 71.0712L221.968 73.1417C221.843 79.459 221.711 85.9841 222.268 92.2661L222.272 92.3014C222.436 93.5601 222.911 95.0659 224.256 95.0659C224.47 95.0659 224.708 95.0424 224.969 94.9993C226.828 93.9719 228.387 91.921 228.71 90.0701L227.479 17.627C227.444 15.5919 228.208 13.6704 229.626 12.2195C231.049 10.7647 232.947 9.96079 234.969 9.96079C235.137 9.96079 235.309 9.96471 235.48 9.97648L264.71 12.0156C269.594 12.3646 273.452 16.4859 273.495 21.4033L274.243 91.0466C274.422 94.1131 274.224 97.1207 273.655 99.9912C273.405 101.787 271.905 110.128 264.905 118.308C255.653 129.119 241.291 134.75 222.221 135.036C221.976 135.036 221.679 135.04 221.356 135.04Z" fill="url(#paint2_linear_451_1613)"/>
<path d="M185.73 10.0157C185.839 10.0157 185.949 10.0196 186.058 10.0235L190.664 10.2627C198.237 10.6588 206.063 11.0666 213.764 11.5254C216.508 11.6823 219.657 12.4587 219.598 17.0937L219.832 63.0795C219.782 65.7499 219.731 68.3811 219.676 71.0202L219.633 73.0907C219.505 79.5021 219.372 86.1331 219.953 92.5798L219.957 92.5994C220.109 93.7758 220.838 97.4148 224.26 97.4148C224.716 97.4148 225.214 97.356 225.748 97.2423C228.484 95.8894 230.679 92.9916 231.057 90.227L229.821 17.5839C229.798 16.184 230.32 14.8625 231.298 13.8625C232.276 12.8587 233.582 12.3097 234.973 12.3097C235.09 12.3097 235.203 12.3136 235.32 12.3214L264.554 14.3606C268.226 14.6233 271.129 17.7251 271.164 21.4229L271.913 91.1289C272.088 94.0386 271.901 96.8855 271.355 99.5951C271.043 101.944 266.148 132.017 222.194 132.68C221.948 132.684 221.664 132.684 221.352 132.684C220.128 132.684 218.53 132.656 217.681 132.644L217.178 132.636C217.069 132.64 216.87 132.644 216.586 132.644C214.395 132.644 206.632 132.291 198.763 127.747C188.723 121.951 182.46 111.928 180.149 97.956L180.122 97.7834L179.413 41.81L179.471 16.2859C179.483 12.8312 182.289 10.0157 185.73 10.0157ZM185.73 5.31007C179.717 5.31007 174.81 10.2314 174.794 16.2859L174.736 41.81V41.8453V41.8806L175.445 97.854L175.449 98.2109L175.508 98.5638L175.535 98.7363C178.088 114.167 185.122 125.304 196.436 131.836C205.311 136.958 214.103 137.358 216.59 137.358C216.862 137.358 217.073 137.354 217.221 137.35L217.618 137.354H217.7C218.612 137.37 220.136 137.393 221.356 137.393C221.691 137.393 221.999 137.393 222.268 137.389C232.958 137.228 242.378 135.374 250.267 131.872C256.826 128.962 262.348 124.915 266.69 119.845C274.017 111.281 275.674 102.466 275.974 100.391C276.57 97.3639 276.78 94.1954 276.593 90.9681L275.845 21.3759C275.787 15.2468 270.973 10.1059 264.89 9.67061L235.648 7.63151C235.426 7.61582 235.199 7.60798 234.977 7.60798C232.319 7.60798 229.829 8.6589 227.966 10.5686C226.103 12.4744 225.101 14.9958 225.148 17.6702L226.376 89.8466C226.173 90.6387 225.53 91.6387 224.665 92.3759C224.638 92.2583 224.614 92.1367 224.599 92.0034V91.9995C224.057 85.8625 224.186 79.4276 224.31 73.2044L224.353 71.1222C224.408 68.4831 224.462 65.8479 224.509 63.1736V63.1187V63.0638L224.279 17.1173C224.302 14.1645 223.34 7.36878 214.033 6.83939C206.441 6.38452 198.716 5.98062 191.245 5.5924L190.91 5.57672L186.303 5.33751C186.124 5.31399 185.933 5.31007 185.73 5.31007Z" fill="black"/>
<path d="M149.01 114.555C149.01 114.555 148.78 102.403 144.068 88.3369C144.068 88.3369 144.068 88.3369 144.068 88.333C141.94 82 138.919 75.2788 134.582 69.1066C131.896 65.2715 128.712 61.6482 124.932 58.4523C124.92 58.4444 124.92 58.4444 124.912 58.4326C123.521 57.0876 122.079 55.7936 120.582 54.5662C118.501 52.8643 116.334 51.3781 114.086 50.0135C96.1694 41.9708 77.6647 42.959 66.2376 43.8178C66.2259 43.8178 68.5293 42.9943 66.3546 42.8845C64.476 43.1158 85.0931 16.9173 82.9807 17.2153C82.9807 17.2153 93.792 6.24335 71.3666 10.7058C48.9412 15.1683 48.6372 49.19 48.8009 54.7231L52.5111 182.63C52.6748 188.273 57.1139 192.845 62.7144 193.147L73.3191 193.715C74.1571 193.763 75.0145 193.794 75.8875 193.817C77.5945 193.864 79.3639 193.876 81.1645 193.829C87.8056 193.645 95.0859 192.766 102.339 190.618C112.347 187.653 143.452 183.642 161.17 145.071C178.887 106.501 145.837 148.914 148.468 128.57C148.764 126.264 149.006 123.868 149.205 121.39C149.263 119.131 149.201 116.865 149.01 114.555ZM94.8832 140.071L91.9953 90.8583C91.7731 87.0507 95.7134 84.3803 99.1119 86.0625C109.588 91.2426 117.313 101.622 116.685 118.155C116.237 129.899 109.95 138.126 102.923 143.691C99.7627 146.193 95.121 144.102 94.8832 140.071Z" fill="#3894AB"/>
<path d="M125.232 176.026C125.232 176.026 174.495 242.897 247.418 250.124C290.289 254.375 322.271 251.324 341.344 248.089C354.716 245.822 361.747 243.462 361.747 243.462L196.612 171.054L167.643 148.114C167.643 148.114 156.52 146.42 151.099 152.537C145.677 158.655 142.719 163.282 142.719 163.282L125.232 176.026Z" fill="#3894AB"/>
<path d="M337.755 234.799L358.649 264.151C364.078 271.778 375.286 271.946 380.941 264.488L411.898 223.651L337.755 234.799Z" fill="#3894AB"/>
<path d="M432.464 186.626C424.537 201.864 415.016 216.271 404.17 229.443C398.246 236.639 391.831 243.568 385.108 250.038C383.533 251.559 381.464 252.395 379.273 252.395C376.904 252.395 374.628 251.387 373.034 249.622C370.89 247.246 369 244.646 367.418 241.889C366.958 241.085 366.521 240.262 366.108 239.427C365.282 237.744 363.586 236.709 361.688 236.709C361.108 236.709 360.535 236.807 359.985 237.003C358.516 237.533 356.945 238.133 355.234 238.776C343.566 243.215 325.93 249.924 300.929 249.924C275.132 249.924 246.79 242.63 216.672 228.247C177.565 209.57 161.411 180.226 154.793 157.557C154.407 156.255 154.064 154.965 153.741 153.71C150.565 141.236 149.82 129.993 149.879 121.763C149.937 113.5 150.818 108.265 150.896 107.842L151.293 105.548L161.239 107.606L166.396 108.673L166.524 110.371C166.532 110.438 166.848 113.241 169.174 117.869C173.419 126.335 184.39 140.93 212.466 156.165C240.009 171.109 254.149 175.662 272.988 175.662C278.986 175.662 285.581 175.183 293.161 174.383C300.734 173.579 309.3 172.446 319.246 171.125L325.283 170.329C326.261 170.199 327.142 169.654 327.707 168.838C328.272 168.019 328.452 167.042 328.226 166.09C327.774 164.164 327.442 162.188 327.24 160.227C326.632 154.424 327.111 148.565 328.662 142.808C329.672 139.075 333.035 136.468 336.851 136.468C337.447 136.468 338.047 136.526 338.636 136.656C356.68 140.55 374.339 146.381 391.117 153.984C404.501 160.051 417.479 167.313 429.674 175.579C433.279 178.007 434.476 182.763 432.464 186.626Z" fill="url(#paint3_linear_451_1613)"/>
<path d="M430.937 173.697C429.561 172.764 428.166 171.842 426.767 170.94C425.403 170.046 424.035 169.176 422.655 168.313C412.822 162.18 402.556 156.678 392.049 151.914C385.049 148.741 377.89 145.871 370.61 143.326C369.082 142.789 367.546 142.267 366.011 141.758C364.927 141.401 363.852 141.052 362.76 140.707C361.17 140.213 359.576 139.722 357.978 139.26C351.754 137.42 345.452 135.813 339.115 134.444C338.371 134.276 337.619 134.201 336.859 134.201C332.034 134.201 327.774 137.495 326.499 142.216C326.032 143.942 325.658 145.679 325.377 147.42C325.135 148.918 324.964 150.435 324.859 151.941C324.664 154.78 324.707 157.631 325.003 160.462C325.221 162.521 325.568 164.592 326.047 166.611C326.145 167.019 325.993 167.344 325.86 167.552C325.739 167.725 325.47 168.023 324.995 168.089C322.933 168.356 320.922 168.627 318.974 168.885C299.159 171.505 284.844 173.399 272.985 173.399C254.359 173.399 241.03 169.089 213.538 154.176C191.468 142.208 180.446 130.801 175.095 123.343C169.631 115.739 168.832 110.634 168.773 110.171L167.269 106.461L165.199 106.12L162.83 105.626C162.58 107.148 162.304 108.626 162.003 110.073L164.291 110.551C164.291 110.551 164.42 112.21 165.48 115.104C168.372 123.01 178.224 140.165 211.414 158.168C238.575 172.901 253.096 177.928 272.992 177.928C286.318 177.928 302.043 175.677 325.587 172.572C328.931 172.132 331.211 168.87 330.428 165.564C330.03 163.85 329.699 161.98 329.489 159.98C329.212 157.306 329.189 154.769 329.344 152.412C329.45 150.82 329.629 149.314 329.863 147.898C330.136 146.279 330.471 144.769 330.849 143.393C331.601 140.597 334.091 138.726 336.862 138.726C337.299 138.726 337.735 138.773 338.18 138.864C344.248 140.173 350.811 141.816 357.768 143.899C359.198 144.33 360.652 144.777 362.117 145.255C363.481 145.679 364.849 146.134 366.241 146.604C367.753 147.11 369.288 147.651 370.84 148.204C377.087 150.439 383.561 153.027 390.202 156.043C401.847 161.321 412.128 167.027 421.057 172.638C422.351 173.458 423.625 174.273 424.865 175.093C426.077 175.881 427.266 176.669 428.427 177.458C431.077 179.246 431.95 182.736 430.473 185.586C423.805 198.409 414.747 213.063 402.439 228C396.079 235.725 389.687 242.505 383.553 248.403C382.356 249.559 380.813 250.128 379.277 250.128C377.598 250.128 375.922 249.446 374.702 248.097C372.901 246.105 371.05 243.666 369.374 240.748C368.922 239.96 368.509 239.172 368.123 238.407C366.888 235.901 364.351 234.439 361.693 234.439C360.87 234.439 360.044 234.576 359.229 234.87C347.802 238.976 329.157 247.654 300.933 247.654C279.209 247.654 251.806 242.513 217.646 226.196C172.511 204.64 157.935 168.897 153.706 142.397C153.316 139.965 153.012 137.609 152.786 135.354C151.59 137.46 150.315 139.428 148.979 141.271C149.263 143.232 149.602 145.255 150.011 147.314C150.448 149.581 150.966 151.902 151.57 154.267C155.386 169.262 161.875 182.857 170.85 194.688C182.052 209.444 197.154 221.416 215.717 230.286C246.136 244.815 274.801 252.183 300.937 252.183C326.343 252.183 344.213 245.387 356.041 240.889C357.729 240.254 359.315 239.646 360.745 239.133C361.053 239.019 361.377 238.964 361.693 238.964C362.733 238.964 363.649 239.517 364.093 240.419C364.522 241.297 364.99 242.168 365.469 243.011C367.133 245.913 369.121 248.646 371.37 251.136C373.388 253.371 376.269 254.649 379.274 254.649C382.045 254.649 384.664 253.591 386.667 251.665C393.448 245.136 399.922 238.144 405.9 230.882C416.852 217.589 426.459 203.048 434.46 187.673C436.997 182.787 435.481 176.771 430.937 173.697Z" fill="black"/>
<path d="M235.223 194.841C235.067 194.053 235.196 193.229 235.527 192.516C235.96 191.582 236.474 190.394 237 188.994C237.772 186.932 238.158 185.885 237.975 185.249C237.331 183.018 232.526 182.167 228.785 183.116C223.488 184.457 220.6 189.343 219.719 190.833C218.768 192.441 214.587 199.515 217.299 206.726C217.634 207.613 219.493 212.558 224.264 214.267C228.274 215.706 233.758 214.899 234.915 211.648C235.34 210.452 236.205 203.433 227.397 201.903C222.144 200.895 221.341 203.535 221.091 202.958C220.526 201.644 221.052 199.782 221.917 198.66C224.521 195.28 232.101 196.151 236.751 200.641C237.667 201.523 240.426 204.189 240.851 208.291C241.556 215.122 235.352 221.106 229.572 222.733C221.832 224.914 215.374 219.122 214.664 218.463C206.141 210.569 208.125 196.837 208.312 195.66C208.69 193.288 210.175 185.939 216.255 180.555C217.128 179.783 223.2 174.567 231.708 175.34C235.165 175.654 240.336 176.124 243.072 180.846C245.917 185.763 244.128 191.818 242.332 194.927C241.607 196.178 239.861 199.198 237.897 198.766C236.681 198.5 235.636 196.962 235.223 194.841Z" fill="white"/>
<path d="M264.812 180.273C253.696 178.755 249.795 190.559 248.509 193.9C245.761 201.06 245.181 207.26 245.009 210.052C244.678 215.471 244.288 231.258 254.671 234.545C265.466 237.976 269.496 229.811 272.595 223.843C275.72 217.796 277.061 207.338 277.201 204.942C277.591 198.625 276.383 181.842 264.812 180.273ZM267.244 206.899C265.817 218.545 261.6 226.925 257.913 225.988C254.273 225.051 252.597 218.593 254.581 205.679C256.596 192.625 260.228 189.033 263.062 189.61C265.922 190.194 268.682 195.151 267.244 206.899Z" fill="white"/>
<path d="M280.148 195.21C280.448 189.375 284.911 184.528 290.792 183.814L294.615 183.347C294.615 183.347 305.399 181.414 306.12 186.085C306.845 190.763 301.541 190.484 299.358 191.076C298.583 191.288 297.304 191.516 295.96 191.719C292.904 192.19 290.722 194.892 290.948 197.919L291.31 202.813C291.458 204.833 293.399 206.264 295.395 205.809C296.677 205.515 298.072 205.26 299.206 205.201C301.903 205.064 304.963 205.201 306.011 208.052C306.537 209.483 305.224 210.934 303.786 212.024C302.262 213.177 300.457 213.91 298.575 214.267C297.386 214.495 296.065 214.734 295.562 214.789C293.804 214.969 292.557 216.499 292.717 218.24C292.803 219.165 292.892 220.087 292.966 220.71C293.181 222.486 293.395 224.663 293.555 226.318C293.68 227.647 294.954 228.623 296.275 228.396C298.59 227.996 301.856 227.474 302.951 227.514C303.396 227.529 303.91 227.635 304.46 227.804C309.308 229.282 310.24 235.847 305.648 237.525C305.161 237.701 304.651 237.803 304.117 237.799C302.285 237.795 298.232 237.819 294.198 237.85C287.736 237.897 282.175 232.886 281.485 226.545C281.068 222.702 280.643 217.749 280.292 211.471C279.91 204.534 279.945 199.205 280.148 195.21Z" fill="white"/>
<path d="M328.378 186.492C335.366 183.594 338.199 185.861 338.483 186.135C338.55 186.198 338.616 186.277 338.682 186.363C339.816 187.857 338.674 189.971 336.694 190.233C335.584 190.378 334.438 190.543 333.604 190.684C332.887 190.806 332.7 191.676 333.304 192.033C334.82 192.935 337.205 194.178 339.645 194.762C343.776 195.751 345.725 193.908 346.079 193.59C349.415 190.594 349.723 184.52 347.634 181.626C343.059 175.289 326.133 175.579 317.325 183.555C316.759 184.069 311.303 189.159 310.96 196.809C310.855 199.182 310.594 204.895 314.947 208.095C318.092 210.409 321.943 210.185 323.42 210.013C323.576 209.993 323.724 209.966 323.876 209.926L336.948 206.503C337.193 206.444 341.543 205.472 344.107 207.974C345.6 209.428 345.678 211.267 345.721 212.342C345.912 216.859 342.353 219.938 341.722 220.463C338.429 223.204 334.286 223.294 331.881 223.337C323.822 223.486 320.509 219.334 316.888 221.298C314.799 222.432 313.649 225.039 314.016 227.216C314.499 230.082 317.558 231.811 319.012 232.635C325.829 236.494 336.698 236.474 345.413 231.788C347.463 230.686 361.174 222.984 359.303 210.891C359.12 209.718 358.196 202.303 352.073 199.303C347.732 197.178 341.196 197.805 336.02 198.947C330.938 200.064 324.075 204.334 321.951 199.605C319.838 194.904 321.565 189.316 328.378 186.492Z" fill="white"/>
<path d="M99.9144 169.415C98.9205 169.415 97.8838 169.399 96.8354 169.372C95.7325 169.34 94.8907 169.309 94.1073 169.266L83.4168 168.693C75.435 168.262 69.0005 161.631 68.7667 153.596L65.0213 24.4933C64.7836 16.5447 70.5049 9.72551 78.3308 8.61969L78.4594 8.60008C80.6341 8.29422 82.6607 8.02364 84.3405 7.81189L84.6094 7.7217L85.1823 7.71778C88.538 7.47073 91.9521 7.34525 95.3233 7.34525C108.387 7.34525 120.301 9.16868 130.739 12.7606C136.019 14.5801 140.786 17.2035 144.902 20.5563L144.96 20.6033C146.519 21.8817 148.062 23.2542 149.543 24.6855C153.386 27.952 156.89 31.8263 159.957 36.2064C164.096 42.0963 167.518 49.0214 170.129 56.7935L170.371 57.5151V57.5307C174.849 71.2476 175.313 82.8941 175.356 84.5018C175.55 86.937 175.617 89.38 175.554 91.7642L175.543 92.0191C175.324 94.7013 175.075 97.1403 174.775 99.4814C172.218 119.269 165.745 135.177 155.53 146.769C147.521 155.867 137.235 162.321 124.959 165.956C118.041 168.007 110.457 169.164 102.416 169.383C101.602 169.403 100.764 169.415 99.9144 169.415ZM118.22 60.0875C118.123 60.0875 118.002 60.1463 117.916 60.2404C117.819 60.3463 117.803 60.4286 117.811 60.5502L120.726 110.222C120.75 110.598 121.093 110.618 121.159 110.618C121.19 110.618 121.28 110.618 121.412 110.512C129.133 104.399 133.217 96.8894 133.549 88.1957C134.04 75.1808 128.65 65.2127 118.376 60.1306C118.294 60.0953 118.248 60.0875 118.22 60.0875Z" fill="url(#paint4_linear_451_1613)"/>
<path d="M95.3234 9.69414C108.13 9.69414 119.791 11.4744 129.983 14.9801C135.002 16.7094 139.527 19.1995 143.428 22.3797L143.487 22.4268C145.011 23.6777 146.519 25.0227 147.977 26.4305C151.691 29.5793 155.078 33.3203 158.044 37.5554C162.05 43.2609 165.371 49.9861 167.912 57.5425L168.033 57.8954V57.9033C172.592 71.6986 172.99 83.4705 173.021 84.6195C173.212 86.9919 173.278 89.3722 173.22 91.6975L173.212 91.823C172.998 94.4699 172.752 96.8737 172.456 99.1756C169.962 118.484 163.679 133.97 153.78 145.201C146.067 153.961 136.148 160.184 124.296 163.69C117.57 165.686 110.184 166.807 102.346 167.023C101.524 167.042 100.713 167.054 99.9067 167.054C98.8856 167.054 97.8801 167.039 96.8901 167.011C95.9898 166.988 95.0973 166.956 94.2321 166.905L83.5339 166.333C76.7603 165.968 71.2962 160.337 71.0974 153.514L67.3598 24.4228C67.1572 17.6663 72.025 11.8744 78.6778 10.9451L78.783 10.9294C81.0591 10.6078 83.1402 10.3294 84.8512 10.1176L84.9915 10.0706L85.276 10.0667C88.6004 9.81962 91.9795 9.69414 95.3234 9.69414ZM121.155 112.975C121.763 112.975 122.352 112.763 122.854 112.367C131.14 105.807 135.525 97.705 135.883 88.2899C136.413 74.2906 130.559 63.5383 119.405 58.0248C119.023 57.8366 118.622 57.7386 118.216 57.7386C117.472 57.7386 116.739 58.0641 116.209 58.6287C115.839 59.0209 115.414 59.6993 115.473 60.6914L118.388 110.367C118.489 112.057 119.888 112.975 121.155 112.975ZM95.3234 4.98851C91.9171 4.98851 88.4757 5.114 85.085 5.36496H84.9564L84.2276 5.36889L83.8262 5.50221C82.1854 5.71004 80.2328 5.97277 78.136 6.26688L78.0893 6.27472L78.0425 6.28256L77.984 6.2904C68.985 7.57269 62.4141 15.4193 62.6869 24.56L66.4323 153.659C66.7012 162.909 74.1101 170.54 83.2922 171.038L93.9905 171.611C94.7817 171.658 95.643 171.689 96.7693 171.721C97.8372 171.752 98.8934 171.764 99.9106 171.764C100.776 171.764 101.637 171.752 102.471 171.732C110.722 171.505 118.509 170.317 125.621 168.207C138.323 164.447 148.978 157.757 157.284 148.322C167.814 136.374 174.479 120.041 177.098 99.7794C177.402 97.3953 177.655 94.9209 177.877 92.2034L177.881 92.1367L177.885 92.0701L177.893 91.9446L177.897 91.8818V91.8191C177.959 89.3722 177.893 86.8664 177.694 84.3685C177.639 82.498 177.125 70.8438 172.713 57.1504V57.1308L172.468 56.3896L172.347 56.0367C169.662 48.0489 166.138 40.9199 161.867 34.8418C158.706 30.3283 155.085 26.3207 151.114 22.9326C149.602 21.4739 148.031 20.0779 146.449 18.7799L146.379 18.7211C142.049 15.1919 137.045 12.4352 131.503 10.5255C120.816 6.85508 108.645 4.98851 95.3234 4.98851ZM122.827 106.159L120.352 63.9735C127.882 68.989 131.623 77.2591 131.214 88.1056C130.953 94.9405 128.135 100.999 122.827 106.159Z" fill="black"/>
<path d="M86.274 17.4506C82.0882 16.4938 78.5182 20.3838 76.8618 23.7993C74.2896 29.1088 74.2506 35.3006 74.8118 41.065C75.3458 46.5627 83.9239 46.6686 83.4484 41.065C83.0742 36.6299 82.5598 32.2655 83.7602 27.9088C84.5864 24.9012 86.6442 22.1523 87.2093 19.1132C87.3379 18.4231 87.0261 17.6231 86.274 17.4506Z" fill="white"/>
<path d="M472.595 276.013C472.595 276.013 410.577 233.866 393.81 297.059C377.044 360.251 422.339 356.354 431.619 362.934C431.619 362.934 441.413 367.608 439.191 378.141C437.882 384.348 432.075 387.356 421.142 385.493C415.429 384.521 408.476 383.38 403.137 382.521C398.382 381.756 394.972 352.417 394.972 352.417L371.728 404.727C370.009 408.751 371.256 413.433 374.737 416.06C378.388 418.813 383.833 422.189 391.172 424.883C408.246 430.287 473.854 447.282 487.538 394.489C487.538 394.489 503.735 348.013 445.509 329.288C445.509 329.288 434.284 324.591 436.451 317.709C438.614 310.827 456.098 320.481 456.098 320.481L465.541 324.226C468.024 325.206 470.787 323.712 471.329 321.081L478.258 287.644C479.182 283.197 477.163 278.656 473.254 276.389L472.595 276.013Z" fill="#3894AB"/>
<path d="M444.059 407.276C425.473 407.276 407.038 399.967 397.704 395.61C391.721 392.814 388.545 386.101 390.155 379.646L395.818 356.934C397.353 350.746 402.856 346.425 409.197 346.425C409.926 346.425 410.663 346.484 411.388 346.601C415.102 347.201 422.281 348.366 428.649 349.452C430.414 349.754 432.036 349.903 433.462 349.903C439.503 349.903 440.041 347.358 440.271 346.272C441.557 340.178 435.941 337.335 435.703 337.217L435.356 337.045L435.033 336.817C433.981 336.072 430.855 335.202 428.096 334.433C420.519 332.328 409.076 329.151 401.41 319.712C392.372 308.584 390.868 291.345 396.932 268.476C400.545 254.857 406.66 244.822 415.098 238.654C421.583 233.913 429.312 231.509 438.065 231.509C458.086 231.509 477.128 243.748 479.607 245.399L480.071 245.662C485.71 248.936 488.594 255.402 487.269 261.763L480.64 293.737C479.778 297.929 476.056 300.976 471.797 300.976C470.663 300.976 469.552 300.765 468.488 300.345L459.161 296.647L458.889 296.498C455.919 294.859 450.778 292.624 447.594 292.173C448.483 293.334 450.564 294.855 452.898 295.949C472.642 302.353 486.174 312.713 493.123 326.751C502.001 344.688 496.802 362.055 496.042 364.353C492.418 378.231 486.127 388.96 477.35 396.234C468.519 403.563 457.314 407.276 444.059 407.276Z" fill="url(#paint5_linear_451_1613)"/>
<path d="M438.065 233.866C457.723 233.866 476.703 246.285 478.387 247.414L478.929 247.72C483.676 250.477 486.096 255.924 484.981 261.288L478.352 293.267C477.713 296.373 474.957 298.631 471.797 298.631C470.959 298.631 470.132 298.474 469.345 298.161L460.159 294.518L460.015 294.439C457.645 293.134 450.607 289.742 446.565 289.742C445.104 289.742 444.975 290.157 444.932 290.291C443.712 294.177 451.199 297.753 452.049 298.145C471.243 304.341 484.354 314.321 491.03 327.802C499.628 345.17 494.358 362.028 493.801 363.687C486.778 390.665 469.579 404.927 444.059 404.927C425.925 404.927 407.849 397.755 398.69 393.481C393.725 391.16 391.09 385.583 392.427 380.227L398.09 357.514C399.364 352.373 403.936 348.785 409.201 348.785C409.809 348.785 410.421 348.832 411.021 348.93C413.975 349.405 421.564 350.636 428.263 351.777C430.157 352.099 431.907 352.264 433.466 352.264C441.405 352.264 442.274 348.127 442.562 346.77C444.223 338.884 437.036 335.261 436.728 335.112L436.541 335.021L436.358 334.896C434.99 333.927 431.942 333.08 428.711 332.182C413.656 328.002 385.63 320.214 399.193 269.103C406.913 239.98 424.592 233.866 438.065 233.866ZM438.065 229.161C428.809 229.161 420.62 231.713 413.726 236.752C404.84 243.246 398.429 253.716 394.676 267.872C391.359 280.373 390.233 291.345 391.324 300.478C392.306 308.674 395.089 315.646 399.598 321.199C407.732 331.218 419.607 334.516 427.468 336.7C429.619 337.296 432.858 338.198 433.68 338.735L433.7 338.747L433.708 338.751L433.891 338.876L434.179 339.076L434.495 339.229L434.67 339.315C434.752 339.358 435.953 340.002 436.927 341.194C438.026 342.543 438.365 343.997 437.987 345.774C437.897 346.193 437.843 346.421 437.644 346.613C437.18 347.06 435.84 347.538 433.466 347.538C432.168 347.538 430.679 347.397 429.043 347.119C422.655 346.029 415.472 344.864 411.762 344.268C410.916 344.131 410.055 344.064 409.201 344.064C401.784 344.064 395.346 349.119 393.553 356.361L387.89 379.07C386.008 386.615 389.722 394.465 396.722 397.74C406.235 402.179 425.028 409.625 444.063 409.625C457.879 409.625 469.579 405.731 478.843 398.049C487.994 390.465 494.534 379.352 498.291 365.02C499.172 362.31 504.421 344.284 495.22 325.7C490.746 316.662 483.691 309.097 474.151 303.082C478.484 302.153 482.008 298.706 482.935 294.216L489.561 262.245C491.092 254.889 487.76 247.414 481.271 243.642L481.244 243.626L481.217 243.611L480.827 243.391C477.974 241.505 458.561 229.161 438.065 229.161Z" fill="black"/>
<path d="M446.128 241.568C440.73 237.701 430.878 240.254 425.277 242.599C419.318 245.093 412.63 249.634 410.58 256.143C410.144 257.528 411.796 258.747 413.001 258.014C418.13 254.9 422.362 250.944 428.157 248.916C431.01 247.92 433.968 247.226 436.989 247.062C439.881 246.905 442.648 247.497 445.466 246.673C447.901 245.96 448.022 242.928 446.128 241.568Z" fill="white"/>
<path d="M458.534 246.356C458.448 246.018 458.316 245.787 458.113 245.524C457.887 245.23 457.61 244.964 457.275 244.799C457.076 244.701 456.877 244.607 456.675 244.513C456.515 244.446 456.355 244.379 456.195 244.309C455.93 244.226 455.665 244.215 455.396 244.273C455.217 244.273 455.05 244.321 454.894 244.411C454.644 244.493 454.43 244.63 454.251 244.826C454.017 245.081 453.841 245.383 453.736 245.713C453.654 245.979 453.643 246.246 453.701 246.517C453.713 246.783 453.791 247.034 453.939 247.265C454.032 247.465 454.126 247.669 454.223 247.869C454.344 248.112 454.523 248.344 454.714 248.532C454.995 248.807 455.385 249.038 455.771 249.132C455.969 249.159 456.168 249.187 456.367 249.214C456.577 249.195 456.784 249.163 456.994 249.128C457.365 249.022 457.688 248.834 457.961 248.56C458.234 248.285 458.421 247.96 458.526 247.587C458.604 247.156 458.647 246.799 458.534 246.356Z" fill="white"/>
<path d="M376.907 399.324C379.916 399.23 382.605 397.434 383.856 394.677C387.274 387.14 395.669 370.702 395.708 368.996L384.421 369.988C384.421 369.988 382.138 372.074 379.402 372.388L365.515 369.161C364.054 369.326 362.811 372.98 362.822 371.502L362.943 360.44C362.963 358.561 364.37 356.993 366.225 356.781L370.944 356.24C372.363 356.075 373.443 354.887 373.474 353.448L373.93 330.265C373.969 328.367 372.488 326.787 370.598 326.716L363.407 326.445C362.518 326.414 361.832 325.649 361.887 324.755L362.144 320.595C362.199 319.716 362.931 319.034 363.804 319.05L379.308 319.281C381.308 319.309 382.964 317.732 383.038 315.721L383.841 294.867C383.934 292.502 382.025 290.542 379.675 290.589L358.929 283.279L329.609 272.946L322.161 391.807C321.998 395.328 324.753 398.289 328.257 398.359L376.907 399.324Z" fill="#3894AB"/>
<path d="M341.504 376.572C335.705 376.572 330.985 371.812 330.985 365.961L331.312 272.511C331.324 267.57 335.334 263.492 340.253 263.421L385.626 262.81C387.964 262.81 390.201 263.77 391.795 265.449C393.413 267.151 394.247 269.382 394.142 271.735L393.272 291.565C393.081 295.933 389.527 299.357 385.182 299.357L381.397 299.282C382.987 300.592 384.605 302.592 384.535 305.278L383.981 327.324C383.888 331.002 380.551 333.175 379.121 333.935L378.338 334.351L373.91 334.833L373.797 341.813L384.433 340.656C384.761 340.621 385.08 340.605 385.396 340.605C387.82 340.605 390.088 341.57 391.784 343.323C393.479 345.076 394.375 347.386 394.309 349.832L393.834 366.835C393.709 371.494 389.979 375.243 385.341 375.368L341.788 376.564L341.516 376.568H341.504V376.572Z" fill="url(#paint6_linear_451_1613)"/>
<path d="M385.657 265.163C387.329 265.163 388.946 265.861 390.104 267.076C391.277 268.311 391.877 269.927 391.803 271.629L390.934 291.459C390.798 294.565 388.272 297 385.178 297L370.983 296.714L370.812 299.227L377.356 299.506L377.78 299.718C378.837 300.239 382.27 302.18 382.192 305.211L381.639 327.261C381.573 329.763 378.852 331.41 378.022 331.857L377.64 332.061L372.714 332.598C372.083 332.669 371.599 333.202 371.588 333.841L371.416 344.366L371.482 344.433L384.687 342.998C384.928 342.97 385.166 342.958 385.4 342.958C387.189 342.958 388.861 343.672 390.112 344.966C391.363 346.26 392.025 347.966 391.975 349.77L391.499 366.769C391.406 370.176 388.677 372.921 385.283 373.015L341.73 374.212L341.508 374.215C336.999 374.215 333.327 370.51 333.327 365.957L333.655 272.515C333.662 268.849 336.64 265.821 340.292 265.77L385.657 265.163ZM385.657 260.457H385.626H385.595L340.226 261.069C334.033 261.159 328.989 266.292 328.974 272.507L328.646 365.945C328.646 373.11 334.415 378.925 341.504 378.925H341.535H341.566L341.788 378.921H341.82H341.851L385.404 377.725C391.281 377.564 396.008 372.812 396.168 366.902L396.644 349.907C396.726 346.817 395.595 343.899 393.456 341.688C391.316 339.476 388.451 338.257 385.392 338.257C384.991 338.257 384.585 338.28 384.184 338.323L376.171 339.194L376.206 336.955L378.139 336.743L379.032 336.645L379.827 336.221L380.209 336.018C382.001 335.061 386.183 332.304 386.312 327.391L386.865 305.337C386.9 304.074 386.651 302.839 386.148 301.666C391.3 301.192 395.373 296.973 395.603 291.671L396.472 271.841C396.605 268.849 395.545 266.002 393.483 263.829C391.452 261.684 388.6 260.457 385.657 260.457Z" fill="black"/>
<path d="M346.29 269.57C343.78 269.66 341.422 271.158 339.844 273.044C336.098 277.519 337.018 285.463 341.621 289.004C342.104 289.377 342.872 288.977 343.004 288.44C343.846 284.942 341.707 280.573 343.683 277.382C345.37 274.656 348.028 276.236 350.405 275.201C351.06 274.915 351.395 274.088 351.419 273.425C351.528 270.578 348.698 269.484 346.29 269.57Z" fill="white"/>
<path d="M316.358 387.685C315.614 388.975 314.269 389.787 312.788 389.83C307.332 389.995 293.644 390.101 283.609 387.619C277.244 386.042 271.363 382.901 266.339 378.666C265.922 378.317 265.599 378.035 265.416 377.854C265.408 377.847 260.158 372.702 258.128 369.816C254.866 365.161 252.582 360.099 250.984 355.326C250.984 355.318 250.984 355.318 250.984 355.318C247.425 344.715 247.254 335.551 247.254 335.551C247.11 333.814 247.059 332.104 247.118 330.398C247.262 328.532 247.449 326.732 247.675 324.991C249.651 309.65 254.675 298.941 261.206 291.526C267.376 284.514 274.894 280.452 282.439 278.217C287.907 276.593 293.395 275.935 298.403 275.797C305.605 275.609 311.985 276.566 315.699 277.295C317.636 277.672 318.942 279.503 318.693 281.471L327.91 289.71L314.522 308.215C313.642 309.321 312.344 309.991 310.937 310.097C304.584 310.58 286.263 313.736 285.16 334.123V334.155C284.711 342.798 287.023 348.354 290.542 351.883C291.555 352.895 292.666 353.75 293.843 354.456C299.946 358.118 307.721 357.934 311.923 357.471C313.595 357.287 315.084 358.526 315.24 360.208L315.851 363.138L330.26 361.749C330.369 363.228 319.932 381.482 316.358 387.685Z" fill="#3894AB"/>
<path d="M312.967 366.192C305.009 366.192 293.266 365.181 282.533 360.373L282.276 360.259L282.022 360.106C280.085 358.934 278.382 357.738 276.831 356.46C275.736 355.562 274.633 354.577 273.549 353.538C270.771 351.174 268.214 348.35 265.953 345.139C262.929 340.821 260.439 335.782 258.552 330.159L258.311 329.438V329.418C255.162 319.681 254.803 311.34 254.764 310.117C254.616 308.286 254.573 306.552 254.632 304.815L254.643 304.611C254.784 302.808 254.967 300.996 255.197 299.227C257.04 284.907 261.748 273.362 269.188 264.919C275.042 258.265 282.56 253.544 291.532 250.889C296.559 249.399 302.062 248.56 307.889 248.399C308.532 248.383 309.16 248.375 309.779 248.375C316.206 248.375 321.795 249.21 325.349 249.908C329.551 250.724 332.419 254.724 331.877 259.006L328.779 283.518C328.307 287.267 325.127 290.098 321.378 290.098C321.089 290.098 320.801 290.083 320.524 290.051C319.515 289.938 318.486 289.879 317.48 289.879C306.587 289.879 300.71 296.208 300.009 308.69L300.005 308.788C299.689 314.819 300.96 319.309 303.777 322.136C304.444 322.803 305.2 323.391 306.026 323.885C309.401 325.908 313.669 326.336 316.654 326.336C317.87 326.336 319.117 326.269 320.349 326.132C320.614 326.104 320.887 326.089 321.16 326.089C325.045 326.089 328.245 329.018 328.603 332.908L329.192 339.241C329.535 344.452 329.936 349.005 330.424 353.166C330.486 353.734 330.556 354.271 330.63 354.82L330.642 354.911L330.852 357.161C331.211 361.4 328.229 365.087 324.071 365.577C321.612 365.851 317.683 366.192 312.967 366.192Z" fill="url(#paint7_linear_451_1613)"/>
<path d="M309.787 250.724C316.027 250.724 321.456 251.536 324.909 252.214C327.906 252.799 329.952 255.649 329.566 258.704L326.468 283.216C326.144 285.793 323.958 287.738 321.386 287.738C321.195 287.738 321 287.726 320.801 287.706C319.702 287.581 318.583 287.518 317.484 287.518C308.98 287.518 298.644 291.177 297.678 308.58L297.674 308.662C297.323 315.391 298.824 320.485 302.133 323.802C302.935 324.606 303.844 325.312 304.833 325.908C308.665 328.206 313.38 328.688 316.658 328.688C317.964 328.688 319.289 328.614 320.606 328.473C320.793 328.453 320.98 328.441 321.163 328.441C323.833 328.441 326.031 330.453 326.281 333.124L326.861 339.394C327.208 344.656 327.614 349.229 328.105 353.436C328.171 354.013 328.237 354.562 328.315 355.13L328.529 357.381C328.779 360.334 326.702 362.894 323.802 363.24C321.393 363.518 317.562 363.851 312.963 363.851C305.231 363.851 293.839 362.879 283.48 358.236L283.355 358.181L283.238 358.11C281.383 356.989 279.773 355.856 278.316 354.656C277.248 353.777 276.172 352.817 275.116 351.801C272.466 349.558 270.026 346.864 267.867 343.794C264.971 339.664 262.586 334.829 260.774 329.422L260.657 329.069V329.061C257.442 319.297 257.134 310.952 257.11 310.007C256.966 308.243 256.923 306.576 256.978 304.909L256.982 304.811C257.118 303.051 257.297 301.282 257.523 299.549C259.308 285.707 263.822 274.586 270.946 266.496C276.504 260.179 283.655 255.692 292.198 253.163C297.031 251.728 302.335 250.924 307.963 250.767C308.579 250.728 309.187 250.724 309.787 250.724ZM309.787 246.018C309.132 246.018 308.474 246.026 307.838 246.042C301.801 246.207 296.096 247.077 290.873 248.63C281.477 251.41 273.588 256.367 267.442 263.359C259.686 272.162 254.788 284.13 252.882 298.925C252.648 300.737 252.457 302.588 252.317 304.431L252.313 304.482L252.309 304.533L252.305 304.631L252.301 304.682V304.733C252.243 306.541 252.285 308.348 252.437 310.246C252.484 311.709 252.889 320.058 255.98 329.786V329.81L256.226 330.551L256.343 330.904C258.299 336.747 260.895 341.986 264.048 346.488C266.409 349.848 269.083 352.805 271.994 355.287C273.105 356.35 274.235 357.354 275.362 358.279C276.995 359.624 278.787 360.887 280.834 362.126L280.935 362.189L281.192 362.345L281.469 362.467L281.594 362.522C292.689 367.494 304.783 368.541 312.967 368.541C317.792 368.541 321.818 368.192 324.344 367.898C329.773 367.255 333.654 362.455 333.195 356.969L333.191 356.946L333.187 356.922L332.972 354.671L332.965 354.581L332.953 354.491C332.875 353.899 332.813 353.393 332.754 352.895V352.883V352.871C332.271 348.75 331.873 344.237 331.534 339.068L331.53 339.006L331.523 338.943L330.942 332.673C330.47 327.571 326.269 323.724 321.171 323.724C320.817 323.724 320.458 323.744 320.107 323.783C318.957 323.908 317.8 323.971 316.666 323.971C312.858 323.971 309.51 323.218 307.234 321.854C306.572 321.457 305.964 320.983 305.434 320.45C303.111 318.12 302.07 314.234 302.351 308.897L302.355 308.85V308.803V308.78C302.994 297.478 307.807 292.216 317.488 292.216C318.408 292.216 319.347 292.271 320.279 292.377C320.629 292.42 321.008 292.439 321.386 292.439C326.312 292.439 330.494 288.726 331.109 283.801L334.208 259.292C334.909 253.783 331.215 248.642 325.801 247.587C322.149 246.873 316.401 246.018 309.787 246.018Z" fill="black"/>
<path d="M304.646 259.563C298.648 256.391 290.327 258.873 284.579 261.696C278.164 264.845 273.319 269.829 270.876 276.597C270.396 277.919 272.372 279.107 273.273 278.001C276.971 273.464 281.644 269.366 286.952 266.868C289.754 265.551 292.845 264.661 295.924 264.3C298.711 263.974 301.357 264.257 304.112 263.672C305.975 263.28 306.307 260.441 304.646 259.563Z" fill="white"/>
<path d="M318.548 260.543C318.47 260.457 318.396 260.367 318.318 260.28C315.465 256.99 315.462 265.645 318.318 262.347L318.548 262.084C318.95 261.614 318.954 261.01 318.548 260.543Z" fill="white"/>
<path d="M224.868 266.766L203.986 241.623C201.398 241.56 194.157 258.594 189.908 272.476C185.66 286.357 172.238 342.915 172.238 342.915C171.79 344.77 173.193 346.558 175.087 346.542L191.113 346.417C192.913 346.405 194.425 345.041 194.64 343.241L194.733 342.441C194.889 341.119 195.992 340.119 197.313 340.1L200.361 340.057L209.82 339.931C211.2 339.911 212.377 340.939 212.556 342.307C212.556 342.307 215.405 362.785 217.015 371.537C217.428 373.788 219.388 375.423 221.664 375.419L241.607 375.396C243.283 375.396 244.881 374.69 246.019 373.447C251.171 367.816 265.657 351.813 265.365 350.209L227.834 269.311C227.561 267.868 226.329 266.806 224.868 266.766ZM206.558 316.179C206.063 316.219 205.576 316.219 205.089 316.199L201.316 316.242C200.782 316.25 200.392 315.736 200.54 315.219L201.589 311.533L205.919 296.345C206.156 295.522 207.345 295.592 207.474 296.439L210.393 315.211C210.467 315.693 210.101 316.128 209.617 316.136L206.558 316.179Z" fill="#3894AB"/>
<path d="M235.008 352.597C230.628 352.597 226.871 349.452 226.076 345.119C224.821 338.288 222.755 323.853 222.05 318.858L213.678 318.971C212.782 322.454 209.644 324.979 205.993 325.002L190.75 325.124C188.431 325.124 186.307 324.089 184.9 322.289C183.493 320.485 182.998 318.175 183.536 315.952L200.318 246.826C201.405 242.379 205.334 239.278 209.878 239.278L238.189 239.98C241.724 240.07 244.764 242.678 245.41 246.175L262.941 343.562C263.346 345.79 262.75 348.072 261.304 349.821C259.854 351.57 257.726 352.573 255.462 352.573L235.008 352.597Z" fill="url(#paint8_linear_451_1613)"/>
<path d="M209.875 241.627L238.127 242.329C240.566 242.391 242.659 244.191 243.107 246.607L260.634 343.982C260.914 345.523 260.501 347.107 259.5 348.319C258.498 349.53 257.021 350.225 255.454 350.225L235.005 350.248C231.75 350.248 228.96 347.915 228.371 344.695C226.851 336.414 224.143 316.983 224.115 316.787C224.092 316.607 223.948 316.481 223.784 316.481L211.889 316.642C211.761 316.642 211.66 316.736 211.644 316.866L211.554 317.626C211.219 320.473 208.818 322.634 205.973 322.654L190.727 322.775C189.137 322.775 187.695 322.069 186.736 320.838C185.777 319.607 185.438 318.03 185.804 316.513L202.586 247.387C203.417 243.991 206.414 241.627 209.875 241.627ZM217.654 289.373L219.287 289.353L219.341 289.357C219.505 289.365 219.665 289.369 219.828 289.369C220.043 289.369 220.261 289.361 220.479 289.346L220.62 289.338L221.804 289.322L220.343 279.93L217.654 289.373ZM209.933 236.921H209.875C204.255 236.921 199.391 240.76 198.046 246.258L181.264 315.391C180.555 318.324 181.209 321.367 183.061 323.74C184.912 326.116 187.71 327.477 190.731 327.477H190.75H190.77L206.016 327.355C210.104 327.328 213.686 324.877 215.327 321.301L220.027 321.238C220.904 327.383 222.658 339.429 223.776 345.546C224.774 350.993 229.498 354.95 235.009 354.95L255.466 354.926C258.42 354.926 261.203 353.613 263.097 351.323C264.991 349.036 265.77 346.048 265.237 343.127L247.71 245.764L247.706 245.752L247.702 245.74C246.849 241.156 242.87 237.741 238.24 237.623L209.984 236.921H209.933Z" fill="black"/>
<path d="M217.818 248.912C216.446 244.281 209.929 246.795 207.673 249.258C204.839 252.351 204.169 257.688 205.276 261.637C205.564 262.673 206.963 262.829 207.513 261.931C208.978 259.532 209.169 256.594 210.623 254.198C211.301 253.085 212.163 252.136 213.503 251.897C214.743 251.677 215.635 252.12 216.82 251.375C217.627 250.873 218.098 249.854 217.818 248.912Z" fill="white"/>
<path d="M204.185 359.448C204.122 357.75 202.692 356.424 201.004 356.503L169.833 357.907C168.36 357.977 167.113 356.836 167.027 355.354C166.735 350.491 166.782 340.17 166.809 334.9C166.809 334.876 166.809 334.849 166.809 334.829C166.871 323.508 166.934 312.184 166.984 300.87C166.984 300.651 166.984 300.419 166.992 300.196L167.768 265.315C167.799 263.904 166.618 262.767 165.219 262.865L164.786 262.896H164.774L134.917 264.99C133.268 265.28 132.668 265.825 132.411 267.26L132.087 312.584L131.538 388.913C131.514 392.183 134.055 394.889 137.306 395.038L145.369 395.422L155.109 395.881L173.15 396.744L177.34 396.975H177.382L182.391 397.253L183.186 397.285L194.995 397.783H195.006L199.987 398.018C202.142 398.12 204.239 397.281 205.736 395.716C211.613 389.56 226.45 373.929 226.501 373.004C226.47 372.941 204.185 359.448 204.185 359.448Z" fill="#3894AB"/>
<path d="M217.681 374.313C217.681 374.313 217.494 374.31 217.396 374.306L209.43 373.929L197.458 373.427L188.603 372.937L171.474 372.121L154.54 371.321C148.963 371.063 144.629 366.459 144.672 360.836L145.506 244.701L145.576 244.313C146.168 241.003 148.226 239.019 151.699 238.415L151.925 238.376L181.026 236.337C181.209 236.325 181.342 236.321 181.474 236.321C183.337 236.321 185.079 237.058 186.381 238.399C187.687 239.744 188.381 241.513 188.338 243.387L187.601 276.57C187.597 276.75 187.597 276.915 187.597 277.072V277.119C187.55 287.895 187.492 298.671 187.43 309.442V309.537C187.41 313.697 187.371 321.709 187.539 326.657L215.163 325.414C215.272 325.41 215.389 325.406 215.51 325.406C219.556 325.406 222.841 328.594 222.989 332.665L224.287 367.157L224.345 367.435L224.314 368.028C224.123 371.553 221.224 374.313 217.712 374.313H217.681Z" fill="url(#paint9_linear_451_1613)"/>
<path d="M181.475 238.674C182.702 238.674 183.852 239.16 184.709 240.046C185.567 240.933 186.027 242.097 185.999 243.336L185.263 276.519C185.259 276.719 185.259 276.919 185.259 277.107C185.212 287.883 185.154 298.659 185.091 309.431V309.529C185.068 314.313 185.021 324.265 185.294 328.806C185.306 328.979 185.43 329.104 185.59 329.104L215.269 327.771C215.343 327.767 215.428 327.763 215.51 327.763C218.293 327.763 220.549 329.955 220.655 332.755L221.96 367.443L221.995 367.616L221.98 367.906C221.855 370.184 219.98 371.965 217.712 371.965C217.712 371.965 217.576 371.965 217.506 371.961L209.543 371.584L197.559 371.082L188.735 370.596L171.591 369.776L154.657 368.977C150.339 368.777 146.983 365.212 147.018 360.859L147.852 244.924L147.887 244.732C148.421 241.752 150.42 241.031 152.108 240.736L152.221 240.717L181.194 238.686C181.299 238.674 181.389 238.674 181.475 238.674ZM181.475 233.968C181.284 233.968 181.104 233.972 180.909 233.984H180.886H180.863L151.89 236.015L151.636 236.035L151.387 236.082L151.286 236.097C145.346 237.144 143.717 241.431 143.28 243.893L143.245 244.085L143.175 244.481L143.171 244.881L142.337 360.816C142.283 367.702 147.599 373.349 154.439 373.666L171.369 374.466L188.494 375.282L197.302 375.768H197.333H197.364L209.333 376.27L217.283 376.647C217.42 376.655 217.658 376.655 217.658 376.655H217.693H217.708C222.463 376.655 226.388 372.917 226.645 368.145L226.661 367.855L226.692 367.251L226.614 366.867L225.324 332.563C225.125 327.226 220.814 323.042 215.506 323.042C215.347 323.042 215.187 323.046 215.039 323.054L189.815 324.187C189.721 319.371 189.753 313.074 189.768 309.572V309.533V309.431C189.834 297.463 189.889 287.475 189.936 277.111V277.099V277.087V277.052C189.936 276.915 189.936 276.77 189.94 276.625V276.613V276.601L190.676 243.419C190.735 240.909 189.803 238.533 188.057 236.737C186.307 234.956 183.973 233.968 181.475 233.968Z" fill="black"/>
<path d="M155.257 279.119C146.948 220.059 67.6752 214.365 54.1202 222.055C40.5652 229.741 36.4184 259.943 36.625 261.994L50.293 395.622L51.6103 408.504L52.9315 421.425C53.2277 424.35 55.9676 426.377 58.8321 425.805L97.9071 418.805C100.039 418.425 101.968 417.299 103.359 415.625C108.633 409.276 122.012 392.936 126.171 385.56C131.389 376.302 90.5215 368.522 90.5215 368.522C89.8863 365.769 91.6401 363.024 94.3994 362.491C106.871 360.071 162.124 327.916 155.257 279.119ZM81.6044 334.39C79.1841 335.014 76.7873 333.343 76.5261 330.849L72.1026 288.953C71.8454 286.51 73.7629 284.369 76.2027 284.412C83.7129 284.542 98.0084 287.408 99.3374 307.27L99.3413 307.329C100.14 319.552 95.6349 326.414 90.4631 330.261C87.427 332.508 84.1611 333.735 81.6044 334.39Z" fill="#3894AB"/>
<path d="M84.0288 231.666C84.0288 231.666 76.3588 236.443 69.7255 242.297C63.0337 248.203 63.0844 253.853 63.0844 253.853C63.0844 253.853 37.124 267.629 18.8844 253.579C0.644756 239.525 -7.85928 220.04 11.9198 211.73C31.6989 203.421 28.9705 224.147 28.9705 224.147C38.0592 221.425 38.0438 224.898 44.8018 218.2C50.0009 213.052 58.275 206.342 70.9531 199.437C97.7241 184.853 115.71 175.54 122.262 201.746C128.809 227.953 103.839 248.705 95.1362 254.536C86.4334 260.367 77.0096 262.904 70.0684 262.32C70.01 262.316 69.9476 262.308 69.8891 262.304C63.2714 261.626 60.173 253.673 64.2847 248.411C65.8281 246.438 67.6287 244.344 69.5929 242.446C76.0743 236.196 84.0288 231.666 84.0288 231.666Z" fill="#3894AB"/>
<path d="M82.4115 395.434C77.4346 395.434 73.3112 391.681 72.8124 386.705L59.5496 257.132L57.2931 235.031C56.8955 231.062 58.9222 227.29 62.4493 225.416C73.7672 219.455 86.8312 216.177 99.2364 216.177C102.448 216.177 105.675 216.42 108.824 216.899C119.803 218.557 129.227 222.832 136.83 229.604C147.256 238.889 153.807 252.591 156.302 270.331C159.334 291.894 155.475 308.764 144.836 320.473C135.973 330.23 124.523 333.735 118.337 334.967L127.929 376.294C128.525 378.886 128.065 381.541 126.627 383.772C125.201 385.995 122.987 387.509 120.399 388.026L84.294 395.246C83.6353 395.371 83.0078 395.434 82.4115 395.434ZM104.938 298.263C106.571 297.745 108.602 296.882 110.496 295.479C115.301 291.91 117.468 286.024 116.946 277.985C116.225 267.209 110.862 261.457 100.994 260.869L104.938 298.263Z" fill="url(#paint10_linear_451_1613)"/>
<path d="M99.2363 218.53C101.781 218.53 104.942 218.691 108.473 219.228C124.709 221.683 148.55 232.004 153.986 270.664C156.913 291.494 153.258 307.725 143.109 318.889C134.589 328.265 123.513 331.567 117.667 332.704C117.102 332.818 116.615 333.143 116.295 333.637C115.979 334.131 115.874 334.72 116.011 335.288L125.653 376.831C126.105 378.792 125.758 380.799 124.667 382.497C123.583 384.187 121.911 385.329 119.947 385.725L83.8456 392.944C83.3701 393.034 82.8907 393.089 82.4153 393.089C78.6504 393.089 75.5208 390.25 75.1428 386.477L61.8801 256.9L59.6235 234.799C59.3234 231.784 60.8668 228.929 63.5443 227.506C74.5153 221.718 87.1895 218.53 99.2363 218.53ZM104.014 300.921C104.127 300.921 104.24 300.906 104.346 300.874C106.302 300.372 109.202 299.361 111.879 297.369C117.367 293.294 119.849 286.71 119.273 277.829C118.22 262.076 108.111 258.606 99.8053 258.469H99.7819C99.2986 258.469 98.9985 258.728 98.8543 258.884C98.7101 259.045 98.4763 259.39 98.5308 259.9L102.74 299.761C102.818 300.51 103.457 300.921 104.014 300.921ZM99.2363 213.824C86.4568 213.824 73.0109 217.2 61.3695 223.33C56.9811 225.663 54.4712 230.345 54.9623 235.262L57.2227 257.375L70.4854 386.952C71.1012 393.124 76.2263 397.787 82.4114 397.787C83.1558 397.787 83.9313 397.712 84.7186 397.559L84.7381 397.555L84.7576 397.551L120.859 390.332C124.074 389.689 126.822 387.811 128.595 385.042C130.376 382.274 130.949 378.98 130.209 375.76L121.151 336.743C127.905 335.076 138.288 331.159 146.558 322.057C157.693 309.807 161.75 292.294 158.616 269.998C156.044 251.689 149.235 237.505 138.381 227.839C130.435 220.761 120.605 216.295 109.171 214.569C105.905 214.075 102.561 213.824 99.2363 213.824ZM106.934 294.918L103.621 263.547C110.515 264.853 114.031 269.574 114.604 278.146C115.079 285.428 113.278 290.483 109.1 293.585C108.395 294.11 107.658 294.549 106.934 294.918Z" fill="black"/>
<path d="M79.2507 281.848C78.6466 277.664 77.7853 273.488 76.8461 269.366C76.0978 266.08 75.5989 261.975 73.0189 259.61C72.329 258.979 71.1754 259.041 70.6921 259.912C68.876 263.171 69.788 267.46 70.1504 271.029C70.5869 275.327 71.1014 279.648 71.8614 283.899C72.7383 288.836 79.9484 286.659 79.2507 281.848Z" fill="white"/>
<path d="M110.301 221.506C94.423 245.426 81.3707 255.755 61.8761 256.892L59.6196 234.792C59.3195 231.776 60.8628 228.921 63.5403 227.498C74.5153 221.718 87.1934 218.53 99.2362 218.53C101.781 218.53 104.942 218.691 108.473 219.228L110.301 221.506Z" fill="#F96C26"/>
<path d="M118.544 203.087C118.31 206.087 117.001 209.252 115.021 212.412C109.066 221.941 97.0734 231.392 90.5415 235.772C81.8309 241.603 72.4071 244.14 65.4737 243.56C65.4152 243.56 65.3528 243.552 65.2944 243.544C58.6689 242.87 55.5744 234.917 59.6861 229.655C61.2294 227.678 63.03 225.588 64.9943 223.686C65.1307 223.557 65.2593 223.428 65.3918 223.306C65.3022 223.38 65.2203 223.459 65.1268 223.533C58.435 229.443 54.4208 235.09 54.4208 235.09C54.4208 235.09 37.5569 243.897 24.8359 237.317C12.8203 231.106 7.76937 218.573 12.1149 215.444C12.3721 215.263 12.6567 215.103 12.9801 214.989L16.1331 213.852C25.2178 211.126 33.4452 206.134 40.2071 199.437C45.4023 194.288 53.6725 187.575 66.3506 180.669C93.1293 166.086 119.491 191.045 118.544 203.087Z" fill="white"/>
<path d="M114.179 212.726C108.224 222.255 96.2317 231.706 89.6997 236.086C80.9891 241.917 71.5653 244.454 64.6319 243.874C64.5734 243.874 64.5111 243.866 64.4526 243.858C57.8271 243.183 54.7326 235.231 58.8443 229.968C60.3877 227.992 62.1882 225.902 64.1525 224C64.2889 223.871 64.4175 223.741 64.55 223.62C64.4604 223.694 64.3786 223.773 64.285 223.847C57.5932 229.757 53.579 235.403 53.579 235.403C53.579 235.403 36.7151 244.211 23.9941 237.631C11.9785 231.419 6.92757 218.887 11.2731 215.757L11.1133 216.953C10.1741 216.459 9.95971 218.318 10.5638 219.196C17.8129 229.768 32.6891 232.776 45.0243 229.435C55.7069 226.549 64.8657 219.855 73.284 212.514C74.843 211.154 77.0762 213.185 75.8563 214.856C75.8446 214.871 75.8329 214.891 75.8173 214.906C75.7588 214.989 75.6887 215.071 75.6302 215.157C75.26 215.62 74.8624 216.044 74.4337 216.428C72.3876 218.275 69.8427 219.487 67.8004 221.345C65.4425 223.49 63.8485 226.467 63.373 229.631C63.2522 230.435 63.2132 231.306 63.6225 232.004C64.3591 233.282 66.1363 233.388 67.6056 233.298C84.8748 232.2 101.676 224.761 114.179 212.726Z" fill="#ACEFC8"/>
<path d="M117.948 193.813C112.76 185.065 104.128 178.838 94.5598 175.756C84.9606 172.603 74.0753 173.771 65.2633 178.724C56.0811 183.791 47.2731 189.645 39.6694 196.986C38.0792 198.586 36.2748 200.303 34.5521 201.727C29.8324 205.644 24.4658 208.762 18.7366 210.938C16.9166 211.597 14.9952 212.197 13.1673 212.922C6.72498 214.808 8.62689 222.428 11.2186 226.722C14.6678 232.56 20.0423 237.09 26.3053 239.529C32.6229 241.831 39.5018 241.219 45.8038 239.462C47.5109 238.972 49.175 238.395 50.8119 237.737C50.8431 237.725 50.8704 237.717 50.9016 237.709C50.9522 237.682 50.9951 237.662 51.0458 237.639C51.9811 237.258 52.9048 236.839 53.8246 236.392C55.2081 235.827 55.5277 235.729 57.0087 234.278C56.9035 235.423 57.0243 236.588 57.3244 237.701C58.1234 240.638 60.2435 243.238 63.2016 244.223C63.3614 244.281 63.5329 244.328 63.6966 244.375C68.5761 245.434 73.7011 244.513 78.4364 243.164C84.7072 241.336 90.4364 238.042 95.6588 234.164C100.663 230.513 105.43 226.537 109.779 222.039C109.958 221.859 110.134 221.683 110.305 221.502C111.478 220.208 112.647 218.891 113.754 217.526C116.892 213.656 119.526 209.405 120.454 204.256C121.074 200.664 119.702 196.86 117.948 193.813ZM116.42 203.668C115.644 208.464 112.663 212.848 109.448 216.695C108.809 217.459 108.169 218.193 107.526 218.914C106.759 219.761 105.967 220.604 105.157 221.42C101.61 225.039 97.7283 228.388 93.6829 231.502C87.5718 236.274 80.7709 240.168 73.1711 241.756C70.2519 242.34 67.1925 242.74 64.2578 242.203C63.7901 242.097 63.3458 241.944 62.9327 241.74C59.5459 240.148 57.7999 235.756 59.1756 232.145C59.3627 231.709 59.5849 231.294 59.8187 230.886C62.5508 227.502 66.869 222.341 72.7034 217.62C74.8391 215.965 77.0528 214.416 79.3172 212.961C79.3523 212.938 79.3913 212.914 79.4263 212.895C86.5975 208.597 78.2142 207.444 75.0496 210.915C70.3883 216.032 51.4394 235.478 43.4147 237.697C38.013 238.784 32.4359 238.799 27.3303 236.819C21.8896 234.462 17.0569 230.231 14.1806 225.035C13.0231 222.922 11.7954 219.679 12.6763 217.561C12.9686 216.848 13.7753 216.706 14.3911 216.479C16.2501 215.789 18.1092 215.267 20.0501 214.577C26.2235 212.35 32.0188 209.087 37.1361 204.966C39.6343 203.021 41.9376 200.625 44.2955 198.511C51.2445 192.3 59.164 187.104 67.3679 182.657C83.7251 173.462 104.518 180.438 114.296 195.951C115.676 198.35 116.814 200.876 116.42 203.668Z" fill="black"/>
</g>
<defs>
<linearGradient id="paint0_linear_451_1613" x1="396.292" y1="9.4898" x2="405.594" y2="197.753" gradientUnits="userSpaceOnUse">
<stop stop-color="#F9CC7F"/>
<stop offset="0.606" stop-color="#FBA724"/>
<stop offset="0.6609" stop-color="#FB9A24"/>
<stop offset="0.7833" stop-color="#FB8324"/>
<stop offset="0.8983" stop-color="#FB7524"/>
<stop offset="0.9972" stop-color="#FB7024"/>
</linearGradient>
<linearGradient id="paint1_linear_451_1613" x1="332.168" y1="5.95258" x2="317.687" y2="184.585" gradientUnits="userSpaceOnUse">
<stop stop-color="#F9CC7F"/>
<stop offset="0.606" stop-color="#FBA724"/>
<stop offset="0.6609" stop-color="#FB9A24"/>
<stop offset="0.7833" stop-color="#FB8324"/>
<stop offset="0.8983" stop-color="#FB7524"/>
<stop offset="0.9972" stop-color="#FB7024"/>
</linearGradient>
<linearGradient id="paint2_linear_451_1613" x1="225.698" y1="6.07955" x2="225.698" y2="149.625" gradientUnits="userSpaceOnUse">
<stop stop-color="#F9CC7F"/>
<stop offset="0.606" stop-color="#FBA724"/>
<stop offset="0.6609" stop-color="#FB9A24"/>
<stop offset="0.7833" stop-color="#FB8324"/>
<stop offset="0.8983" stop-color="#FB7524"/>
<stop offset="0.9972" stop-color="#FB7024"/>
</linearGradient>
<linearGradient id="paint3_linear_451_1613" x1="228.437" y1="240.799" x2="340.749" y2="77.8428" gradientUnits="userSpaceOnUse">
<stop offset="0.216" stop-color="#359EB4"/>
<stop offset="0.3321" stop-color="#3CA7B0"/>
<stop offset="0.5226" stop-color="#4EC0A7"/>
<stop offset="0.6308" stop-color="#5AD1A0"/>
<stop offset="0.7238" stop-color="#ACCE8F"/>
<stop offset="0.8151" stop-color="#F9CC7F"/>
</linearGradient>
<linearGradient id="paint4_linear_451_1613" x1="116.619" y1="14.731" x2="125.094" y2="174.783" gradientUnits="userSpaceOnUse">
<stop stop-color="#F9CC7F"/>
<stop offset="0.606" stop-color="#FBA724"/>
<stop offset="0.6609" stop-color="#FB9A24"/>
<stop offset="0.7833" stop-color="#FB8324"/>
<stop offset="0.8983" stop-color="#FB7524"/>
<stop offset="0.9972" stop-color="#FB7024"/>
</linearGradient>
<linearGradient id="paint5_linear_451_1613" x1="447.657" y1="231.76" x2="442.819" y2="407.27" gradientUnits="userSpaceOnUse">
<stop stop-color="#F9CC7F"/>
<stop offset="0.606" stop-color="#FBA724"/>
<stop offset="0.6609" stop-color="#FB9A24"/>
<stop offset="0.7833" stop-color="#FB8324"/>
<stop offset="0.8983" stop-color="#FB7524"/>
<stop offset="0.9972" stop-color="#FB7024"/>
</linearGradient>
<linearGradient id="paint6_linear_451_1613" x1="364.142" y1="262.215" x2="360.975" y2="377.114" gradientUnits="userSpaceOnUse">
<stop stop-color="#F9CC7F"/>
<stop offset="0.606" stop-color="#FBA724"/>
<stop offset="0.6609" stop-color="#FB9A24"/>
<stop offset="0.7833" stop-color="#FB8324"/>
<stop offset="0.8983" stop-color="#FB7524"/>
<stop offset="0.9972" stop-color="#FB7024"/>
</linearGradient>
<linearGradient id="paint7_linear_451_1613" x1="295.035" y1="247.934" x2="291.79" y2="365.644" gradientUnits="userSpaceOnUse">
<stop stop-color="#F9CC7F"/>
<stop offset="0.606" stop-color="#FBA724"/>
<stop offset="0.6609" stop-color="#FB9A24"/>
<stop offset="0.7833" stop-color="#FB8324"/>
<stop offset="0.8983" stop-color="#FB7524"/>
<stop offset="0.9972" stop-color="#FB7024"/>
</linearGradient>
<linearGradient id="paint8_linear_451_1613" x1="225.69" y1="239.631" x2="222.585" y2="352.259" gradientUnits="userSpaceOnUse">
<stop stop-color="#F9CC7F"/>
<stop offset="0.606" stop-color="#FBA724"/>
<stop offset="0.6609" stop-color="#FB9A24"/>
<stop offset="0.7833" stop-color="#FB8324"/>
<stop offset="0.8983" stop-color="#FB7524"/>
<stop offset="0.9972" stop-color="#FB7024"/>
</linearGradient>
<linearGradient id="paint9_linear_451_1613" x1="186.821" y1="236.464" x2="183.048" y2="373.36" gradientUnits="userSpaceOnUse">
<stop stop-color="#F9CC7F"/>
<stop offset="0.606" stop-color="#FBA724"/>
<stop offset="0.6609" stop-color="#FB9A24"/>
<stop offset="0.7833" stop-color="#FB8324"/>
<stop offset="0.8983" stop-color="#FB7524"/>
<stop offset="0.9972" stop-color="#FB7024"/>
</linearGradient>
<linearGradient id="paint10_linear_451_1613" x1="108.311" y1="221.276" x2="103.24" y2="405.242" gradientUnits="userSpaceOnUse">
<stop stop-color="#F9CC7F"/>
<stop offset="0.606" stop-color="#FBA724"/>
<stop offset="0.6609" stop-color="#FB9A24"/>
<stop offset="0.7833" stop-color="#FB8324"/>
<stop offset="0.8983" stop-color="#FB7524"/>
<stop offset="0.9972" stop-color="#FB7024"/>
</linearGradient>
<clipPath id="clip0_451_1613">
<rect width="500" height="431" fill="white" transform="translate(0.574707 0.816193)"/>
</clipPath>
</defs>
</svg>
